<svg xmlns="http://www.w3.org/2000/svg" fill="white" viewBox="0 0 24 24" width="24" height="24">
  <path d="M12 2a2 2 0 0 1 2 2v1.09c.33.07.66.17.97.29l.77-.77a2 2 0 1 1 2.83 2.83l-.77.77c.12.31.22.64.29.97H20a2 2 0 0 1 0 4h-1.09a7.99 7.99 0 0 1-.29.97l.77.77a2 2 0 1 1-2.83 2.83l-.77-.77a7.99 7.99 0 0 1-.97.29V20a2 2 0 0 1-4 0v-1.09a7.99 7.99 0 0 1-.97-.29l-.77.77a2 2 0 1 1-2.83-2.83l.77-.77a7.99 7.99 0 0 1-.29-.97H4a2 2 0 0 1 0-4h1.09c.07-.33.17-.66.29-.97l-.77-.77a2 2 0 1 1 2.83-2.83l.77.77c.31-.12.64-.22.97-.29V4a2 2 0 0 1 2-2zm0 8a4 4 0 1 0 0 8 4 4 0 0 0 0-8z"></path>
  <path d="M17 22a1 1 0 0 1-1-1c0-1.1-.9-2-2-2H10a2 2 0 0 0-2 2 1 1 0 0 1-2 0 4 4 0 0 1 4-4h4a4 4 0 0 1 4 4 1 1 0 0 1-1 1z"></path>
</svg>
