<svg xmlns="http://www.w3.org/2000/svg" width="24" height="24" viewBox="0 0 24 24" fill="white">
  <path d="M20.52 3.48A11.78 11.78 0 0 0 12 0a11.94 11.94 0 0 0-10.5 17.91L0 24l6.24-1.63A11.94 11.94 0 0 0 12 24a11.78 11.78 0 0 0 8.52-3.48A11.78 11.78 0 0 0 24 12a11.78 11.78 0 0 0-3.48-8.52zM12 22.08a9.92 9.92 0 0 1-5.06-1.39l-.36-.21-3.7.96 1-3.61-.23-.37a9.91 9.91 0 1 1 8.35 4.62zM17.31 14.7c-.28-.14-1.67-.82-1.93-.91s-.45-.14-.64.14-.73.91-.9 1.1-.33.21-.61.07a8.09 8.09 0 0 1-2.38-1.47 8.86 8.86 0 0 1-1.63-2c-.17-.28 0-.43.13-.57.14-.14.28-.33.42-.5a1.83 1.83 0 0 0 .28-.47.51.51 0 0 0 0-.48c-.07-.14-.64-1.54-.88-2.11s-.47-.49-.64-.5h-.55a1.05 1.05 0 0 0-.75.35 3.11 3.11 0 0 0-1 2.3 5.44 5.44 0 0 0 1.12 2.88A12.5 12.5 0 0 0 13.13 17a5.31 5.31 0 0 0 3.15.9 2.67 2.67 0 0 0 1.75-.59 2.22 2.22 0 0 0 .76-1.38 1.82 1.82 0 0 0-.48-1.23z"></path>
</svg>
